<svg width="88" height="20" viewBox="0 0 88 20" fill="none" xmlns="http://www.w3.org/2000/svg">
<path d="M24.709 5.04688H26.2402L29.1182 12.7236L31.9893 5.04688H33.5205L29.7197 15H28.5029L24.709 5.04688ZM24.0117 5.04688H25.4678L25.7207 11.6914V15H24.0117V5.04688ZM32.7617 5.04688H34.2246V15H32.5088V11.6914L32.7617 5.04688ZM37.9613 7.60352V15H36.307V7.60352H37.9613ZM36.1977 5.66211C36.1977 5.41146 36.2797 5.2041 36.4438 5.04004C36.6124 4.87142 36.8448 4.78711 37.141 4.78711C37.4327 4.78711 37.6628 4.87142 37.8314 5.04004C38.0001 5.2041 38.0844 5.41146 38.0844 5.66211C38.0844 5.9082 38.0001 6.11328 37.8314 6.27734C37.6628 6.44141 37.4327 6.52344 37.141 6.52344C36.8448 6.52344 36.6124 6.44141 36.4438 6.27734C36.2797 6.11328 36.1977 5.9082 36.1977 5.66211ZM44.3777 13.4688V4.5H46.032V15H44.535L44.3777 13.4688ZM39.5652 11.3838V11.2402C39.5652 10.6797 39.6313 10.1693 39.7635 9.70898C39.8956 9.24414 40.087 8.84538 40.3377 8.5127C40.5883 8.17546 40.8937 7.91797 41.2537 7.74023C41.6137 7.55794 42.0193 7.4668 42.4705 7.4668C42.9171 7.4668 43.3091 7.55339 43.6463 7.72656C43.9835 7.89974 44.2706 8.14811 44.5076 8.47168C44.7446 8.79069 44.9337 9.1735 45.075 9.62012C45.2163 10.0622 45.3165 10.5544 45.3758 11.0967V11.5547C45.3165 12.0833 45.2163 12.5664 45.075 13.0039C44.9337 13.4414 44.7446 13.8197 44.5076 14.1387C44.2706 14.4577 43.9813 14.7038 43.6395 14.877C43.3022 15.0501 42.908 15.1367 42.4568 15.1367C42.0102 15.1367 41.6069 15.0433 41.2469 14.8564C40.8914 14.6696 40.5883 14.4076 40.3377 14.0703C40.087 13.7331 39.8956 13.3366 39.7635 12.8809C39.6313 12.4206 39.5652 11.9215 39.5652 11.3838ZM41.2127 11.2402V11.3838C41.2127 11.721 41.2423 12.0355 41.3016 12.3271C41.3654 12.6188 41.4633 12.8763 41.5955 13.0996C41.7277 13.3184 41.8986 13.4915 42.1082 13.6191C42.3224 13.7422 42.5776 13.8037 42.8738 13.8037C43.2475 13.8037 43.5551 13.7217 43.7967 13.5576C44.0382 13.3936 44.2273 13.1725 44.3641 12.8945C44.5053 12.612 44.601 12.2975 44.6512 11.9512V10.7139C44.6238 10.445 44.5669 10.1943 44.4803 9.96191C44.3982 9.72949 44.2866 9.52669 44.1453 9.35352C44.004 9.17578 43.8286 9.03906 43.6189 8.94336C43.4139 8.8431 43.1701 8.79297 42.8875 8.79297C42.5867 8.79297 42.3315 8.85677 42.1219 8.98438C41.9122 9.11198 41.7391 9.28743 41.6023 9.51074C41.4702 9.73405 41.3722 9.99382 41.3084 10.29C41.2446 10.5863 41.2127 10.903 41.2127 11.2402ZM53.2047 4.5V15H51.5504V4.5H53.2047ZM58.3701 15.1367C57.8232 15.1367 57.3288 15.0479 56.8867 14.8701C56.4492 14.6878 56.0755 14.4349 55.7656 14.1113C55.4603 13.7878 55.2256 13.4072 55.0615 12.9697C54.8975 12.5322 54.8154 12.0605 54.8154 11.5547V11.2812C54.8154 10.7025 54.8997 10.1784 55.0684 9.70898C55.237 9.23958 55.4717 8.83854 55.7725 8.50586C56.0732 8.16862 56.4287 7.91113 56.8389 7.7334C57.249 7.55566 57.6934 7.4668 58.1719 7.4668C58.7005 7.4668 59.1631 7.55566 59.5596 7.7334C59.9561 7.91113 60.2842 8.16178 60.5439 8.48535C60.8083 8.80436 61.0042 9.1849 61.1318 9.62695C61.264 10.069 61.3301 10.5566 61.3301 11.0898V11.7939H55.6152V10.6113H59.7031V10.4814C59.694 10.1852 59.6348 9.90723 59.5254 9.64746C59.4206 9.3877 59.2588 9.17806 59.04 9.01855C58.8213 8.85905 58.5296 8.7793 58.165 8.7793C57.8916 8.7793 57.6478 8.83854 57.4336 8.95703C57.224 9.07096 57.0485 9.2373 56.9072 9.45605C56.766 9.6748 56.6566 9.93913 56.5791 10.249C56.5062 10.5544 56.4697 10.8984 56.4697 11.2812V11.5547C56.4697 11.8783 56.513 12.179 56.5996 12.457C56.6908 12.7305 56.8229 12.9697 56.9961 13.1748C57.1693 13.3799 57.3789 13.5417 57.625 13.6602C57.8711 13.7741 58.1514 13.8311 58.4658 13.8311C58.8623 13.8311 59.2155 13.7513 59.5254 13.5918C59.8353 13.4323 60.1042 13.2067 60.332 12.915L61.2002 13.7559C61.0407 13.9883 60.8333 14.2116 60.5781 14.4258C60.3229 14.6354 60.0107 14.8063 59.6416 14.9385C59.277 15.0706 58.8532 15.1367 58.3701 15.1367ZM65.0258 13.6943L66.8373 7.60352H68.5463L65.976 15H64.9096L65.0258 13.6943ZM63.6381 7.60352L65.4838 13.7217L65.5727 15H64.5062L61.9223 7.60352H63.6381ZM72.8299 15.1367C72.283 15.1367 71.7885 15.0479 71.3465 14.8701C70.909 14.6878 70.5353 14.4349 70.2254 14.1113C69.9201 13.7878 69.6854 13.4072 69.5213 12.9697C69.3572 12.5322 69.2752 12.0605 69.2752 11.5547V11.2812C69.2752 10.7025 69.3595 10.1784 69.5281 9.70898C69.6967 9.23958 69.9314 8.83854 70.2322 8.50586C70.533 8.16862 70.8885 7.91113 71.2986 7.7334C71.7088 7.55566 72.1531 7.4668 72.6316 7.4668C73.1603 7.4668 73.6229 7.55566 74.0193 7.7334C74.4158 7.91113 74.7439 8.16178 75.0037 8.48535C75.268 8.80436 75.464 9.1849 75.5916 9.62695C75.7238 10.069 75.7898 10.5566 75.7898 11.0898V11.7939H70.075V10.6113H74.1629V10.4814C74.1538 10.1852 74.0945 9.90723 73.9852 9.64746C73.8803 9.3877 73.7186 9.17806 73.4998 9.01855C73.2811 8.85905 72.9894 8.7793 72.6248 8.7793C72.3514 8.7793 72.1076 8.83854 71.8934 8.95703C71.6837 9.07096 71.5083 9.2373 71.367 9.45605C71.2257 9.6748 71.1163 9.93913 71.0389 10.249C70.966 10.5544 70.9295 10.8984 70.9295 11.2812V11.5547C70.9295 11.8783 70.9728 12.179 71.0594 12.457C71.1505 12.7305 71.2827 12.9697 71.4559 13.1748C71.629 13.3799 71.8387 13.5417 72.0848 13.6602C72.3309 13.7741 72.6111 13.8311 72.9256 13.8311C73.3221 13.8311 73.6753 13.7513 73.9852 13.5918C74.2951 13.4323 74.5639 13.2067 74.7918 12.915L75.66 13.7559C75.5005 13.9883 75.2931 14.2116 75.0379 14.4258C74.7827 14.6354 74.4705 14.8063 74.1014 14.9385C73.7368 15.0706 73.313 15.1367 72.8299 15.1367ZM78.9387 4.5V15H77.2844V4.5H78.9387Z" fill="#CBCBCB"/>
<path d="M1.48315 9.37256C2.30382 9.37256 2.96629 9.86302 2.96629 10.4706V15.0915C2.96629 15.699 2.30382 16.1895 1.48315 16.1895C0.662472 16.1895 0 15.699 0 15.0915V10.4706C0 9.86302 0.662472 9.37256 1.48315 9.37256Z" fill="#A21CAF"/>
<path d="M7.44945 5.37265C8.27013 5.37265 8.9326 5.86311 8.9326 6.47069V15.0915C8.9326 15.6991 8.27013 16.1896 7.44945 16.1896C6.62878 16.1896 5.96631 15.6991 5.96631 15.0915L5.96631 6.47069C5.96631 5.86311 6.62878 5.37265 7.44945 5.37265Z" fill="#A21CAF"/>
<path d="M13.4157 1C14.2364 1 14.8988 1.49046 14.8988 2.09804V15.0915C14.8988 15.6991 14.2364 16.1896 13.4157 16.1896C12.595 16.1896 11.9326 15.6991 11.9326 15.0915V2.09804C11.9326 1.49046 12.595 1 13.4157 1Z" fill="#3D3C4A"/>
</svg>
