<svg width="16" height="17" viewBox="0 0 16 17" fill="none" xmlns="http://www.w3.org/2000/svg">
<path d="M14.6563 7.64875L11.8375 10.1087L12.6819 13.7712C12.7266 13.9627 12.7138 14.1631 12.6452 14.3474C12.5766 14.5316 12.4553 14.6916 12.2963 14.8072C12.1373 14.9229 11.9477 14.9891 11.7513 14.9976C11.5548 15.0061 11.3603 14.9565 11.1919 14.855L7.9975 12.9175L4.81 14.855C4.64161 14.9565 4.44704 15.0061 4.25061 14.9976C4.05419 14.9891 3.86462 14.9229 3.70562 14.8072C3.54663 14.6916 3.42524 14.5316 3.35666 14.3474C3.28807 14.1631 3.27532 13.9627 3.32 13.7712L4.16313 10.1125L1.34375 7.64875C1.19463 7.52014 1.0868 7.35036 1.03379 7.16071C0.980772 6.97107 0.984928 6.76999 1.04574 6.58269C1.10654 6.39539 1.2213 6.23022 1.3756 6.10788C1.52991 5.98554 1.7169 5.91149 1.91313 5.895L5.62938 5.57312L7.08 2.11312C7.15576 1.93157 7.28353 1.77649 7.44724 1.66741C7.61096 1.55833 7.80328 1.50012 8 1.50012C8.19673 1.50012 8.38905 1.55833 8.55276 1.66741C8.71647 1.77649 8.84425 1.93157 8.92 2.11312L10.375 5.57312L14.09 5.895C14.2862 5.91149 14.4732 5.98554 14.6275 6.10788C14.7818 6.23022 14.8966 6.39539 14.9574 6.58269C15.0182 6.76999 15.0224 6.97107 14.9693 7.16071C14.9163 7.35036 14.8085 7.52014 14.6594 7.64875H14.6563Z" fill="#ED2481"/>
</svg>
