<svg width="32" height="32" viewBox="0 0 32 32" fill="none" xmlns="http://www.w3.org/2000/svg">
<path d="M4 13.3358V18.6691C4 19.4024 4.6 20.0024 5.33333 20.0024H9.33333L13.72 24.3891C14.56 25.2291 16 24.6291 16 23.4424V8.54908C16 7.36242 14.56 6.76242 13.72 7.60242L9.33333 12.0024H5.33333C4.6 12.0024 4 12.6024 4 13.3358ZM22 16.0024C22 13.6424 20.64 11.6158 18.6667 10.6291V21.3624C20.64 20.3891 22 18.3624 22 16.0024ZM18.6667 5.93575V6.20242C18.6667 6.70908 19 7.14908 19.4667 7.33575C22.9067 8.70908 25.3333 12.0824 25.3333 16.0024C25.3333 19.9224 22.9067 23.2958 19.4667 24.6691C18.9867 24.8558 18.6667 25.2958 18.6667 25.8024V26.0691C18.6667 26.9091 19.5067 27.4958 20.28 27.2024C24.8 25.4824 28 21.1224 28 16.0024C28 10.8824 24.8 6.52242 20.28 4.80242C19.5067 4.49575 18.6667 5.09575 18.6667 5.93575Z" fill="#EAEAEA"/>
</svg>
